<mxfile host="app.diagrams.net" modified="2024-05-10T21:57:53.853Z" agent="Mozilla/5.0 (Windows NT 10.0; Win64; x64) AppleWebKit/537.36 (KHTML, like Gecko) Chrome/124.0.0.0 Safari/537.36 Edg/124.0.0.0" etag="pOs0kXyLqcltihbrIWug" version="24.3.1" type="device">
  <diagram id="C5RBs43oDa-KdzZeNtuy" name="Page-1">
    <mxGraphModel dx="986" dy="459" grid="1" gridSize="10" guides="1" tooltips="1" connect="1" arrows="1" fold="1" page="1" pageScale="1" pageWidth="827" pageHeight="1169" math="0" shadow="0">
      <root>
        <mxCell id="WIyWlLk6GJQsqaUBKTNV-0" />
        <mxCell id="WIyWlLk6GJQsqaUBKTNV-1" parent="WIyWlLk6GJQsqaUBKTNV-0" />
        <mxCell id="SHEvJp04jUSjWjKEnZsJ-0" value="alunos" style="shape=table;startSize=30;container=1;collapsible=1;childLayout=tableLayout;fixedRows=1;rowLines=0;fontStyle=1;align=center;resizeLast=1;html=1;" parent="WIyWlLk6GJQsqaUBKTNV-1" vertex="1">
          <mxGeometry x="5" y="13" width="155" height="301" as="geometry" />
        </mxCell>
        <mxCell id="SHEvJp04jUSjWjKEnZsJ-1" value="" style="shape=tableRow;horizontal=0;startSize=0;swimlaneHead=0;swimlaneBody=0;fillColor=none;collapsible=0;dropTarget=0;points=[[0,0.5],[1,0.5]];portConstraint=eastwest;top=0;left=0;right=0;bottom=1;" parent="SHEvJp04jUSjWjKEnZsJ-0" vertex="1">
          <mxGeometry y="30" width="155" height="30" as="geometry" />
        </mxCell>
        <mxCell id="SHEvJp04jUSjWjKEnZsJ-2" value="(PK)" style="shape=partialRectangle;connectable=0;fillColor=none;top=0;left=0;bottom=0;right=0;fontStyle=1;overflow=hidden;whiteSpace=wrap;html=1;" parent="SHEvJp04jUSjWjKEnZsJ-1" vertex="1">
          <mxGeometry width="30" height="30" as="geometry">
            <mxRectangle width="30" height="30" as="alternateBounds" />
          </mxGeometry>
        </mxCell>
        <mxCell id="SHEvJp04jUSjWjKEnZsJ-3" value="id_aluno" style="shape=partialRectangle;connectable=0;fillColor=none;top=0;left=0;bottom=0;right=0;align=left;spacingLeft=6;fontStyle=5;overflow=hidden;whiteSpace=wrap;html=1;" parent="SHEvJp04jUSjWjKEnZsJ-1" vertex="1">
          <mxGeometry x="30" width="125" height="30" as="geometry">
            <mxRectangle width="125" height="30" as="alternateBounds" />
          </mxGeometry>
        </mxCell>
        <mxCell id="SHEvJp04jUSjWjKEnZsJ-4" value="" style="shape=tableRow;horizontal=0;startSize=0;swimlaneHead=0;swimlaneBody=0;fillColor=none;collapsible=0;dropTarget=0;points=[[0,0.5],[1,0.5]];portConstraint=eastwest;top=0;left=0;right=0;bottom=0;" parent="SHEvJp04jUSjWjKEnZsJ-0" vertex="1">
          <mxGeometry y="60" width="155" height="40" as="geometry" />
        </mxCell>
        <mxCell id="SHEvJp04jUSjWjKEnZsJ-5" value="" style="shape=partialRectangle;connectable=0;fillColor=none;top=0;left=0;bottom=0;right=0;editable=1;overflow=hidden;whiteSpace=wrap;html=1;" parent="SHEvJp04jUSjWjKEnZsJ-4" vertex="1">
          <mxGeometry width="30" height="40" as="geometry">
            <mxRectangle width="30" height="40" as="alternateBounds" />
          </mxGeometry>
        </mxCell>
        <mxCell id="SHEvJp04jUSjWjKEnZsJ-6" value="nome" style="shape=partialRectangle;connectable=0;fillColor=none;top=0;left=0;bottom=0;right=0;align=left;spacingLeft=6;overflow=hidden;whiteSpace=wrap;html=1;" parent="SHEvJp04jUSjWjKEnZsJ-4" vertex="1">
          <mxGeometry x="30" width="125" height="40" as="geometry">
            <mxRectangle width="125" height="40" as="alternateBounds" />
          </mxGeometry>
        </mxCell>
        <mxCell id="SHEvJp04jUSjWjKEnZsJ-7" value="" style="shape=tableRow;horizontal=0;startSize=0;swimlaneHead=0;swimlaneBody=0;fillColor=none;collapsible=0;dropTarget=0;points=[[0,0.5],[1,0.5]];portConstraint=eastwest;top=0;left=0;right=0;bottom=0;" parent="SHEvJp04jUSjWjKEnZsJ-0" vertex="1">
          <mxGeometry y="100" width="155" height="40" as="geometry" />
        </mxCell>
        <mxCell id="SHEvJp04jUSjWjKEnZsJ-8" value="" style="shape=partialRectangle;connectable=0;fillColor=none;top=0;left=0;bottom=0;right=0;editable=1;overflow=hidden;whiteSpace=wrap;html=1;" parent="SHEvJp04jUSjWjKEnZsJ-7" vertex="1">
          <mxGeometry width="30" height="40" as="geometry">
            <mxRectangle width="30" height="40" as="alternateBounds" />
          </mxGeometry>
        </mxCell>
        <mxCell id="SHEvJp04jUSjWjKEnZsJ-9" value="cpf" style="shape=partialRectangle;connectable=0;fillColor=none;top=0;left=0;bottom=0;right=0;align=left;spacingLeft=6;overflow=hidden;whiteSpace=wrap;html=1;" parent="SHEvJp04jUSjWjKEnZsJ-7" vertex="1">
          <mxGeometry x="30" width="125" height="40" as="geometry">
            <mxRectangle width="125" height="40" as="alternateBounds" />
          </mxGeometry>
        </mxCell>
        <mxCell id="SHEvJp04jUSjWjKEnZsJ-10" value="" style="shape=tableRow;horizontal=0;startSize=0;swimlaneHead=0;swimlaneBody=0;fillColor=none;collapsible=0;dropTarget=0;points=[[0,0.5],[1,0.5]];portConstraint=eastwest;top=0;left=0;right=0;bottom=0;" parent="SHEvJp04jUSjWjKEnZsJ-0" vertex="1">
          <mxGeometry y="140" width="155" height="50" as="geometry" />
        </mxCell>
        <mxCell id="SHEvJp04jUSjWjKEnZsJ-11" value="" style="shape=partialRectangle;connectable=0;fillColor=none;top=0;left=0;bottom=0;right=0;editable=1;overflow=hidden;whiteSpace=wrap;html=1;" parent="SHEvJp04jUSjWjKEnZsJ-10" vertex="1">
          <mxGeometry width="30" height="50" as="geometry">
            <mxRectangle width="30" height="50" as="alternateBounds" />
          </mxGeometry>
        </mxCell>
        <mxCell id="SHEvJp04jUSjWjKEnZsJ-12" value="idade" style="shape=partialRectangle;connectable=0;fillColor=none;top=0;left=0;bottom=0;right=0;align=left;spacingLeft=6;overflow=hidden;whiteSpace=wrap;html=1;" parent="SHEvJp04jUSjWjKEnZsJ-10" vertex="1">
          <mxGeometry x="30" width="125" height="50" as="geometry">
            <mxRectangle width="125" height="50" as="alternateBounds" />
          </mxGeometry>
        </mxCell>
        <mxCell id="SHEvJp04jUSjWjKEnZsJ-13" value="" style="shape=tableRow;horizontal=0;startSize=0;swimlaneHead=0;swimlaneBody=0;fillColor=none;collapsible=0;dropTarget=0;points=[[0,0.5],[1,0.5]];portConstraint=eastwest;top=0;left=0;right=0;bottom=0;" parent="SHEvJp04jUSjWjKEnZsJ-0" vertex="1">
          <mxGeometry y="190" width="155" height="37" as="geometry" />
        </mxCell>
        <mxCell id="SHEvJp04jUSjWjKEnZsJ-14" value="" style="shape=partialRectangle;connectable=0;fillColor=none;top=0;left=0;bottom=0;right=0;editable=1;overflow=hidden;whiteSpace=wrap;html=1;" parent="SHEvJp04jUSjWjKEnZsJ-13" vertex="1">
          <mxGeometry width="30" height="37" as="geometry">
            <mxRectangle width="30" height="37" as="alternateBounds" />
          </mxGeometry>
        </mxCell>
        <mxCell id="SHEvJp04jUSjWjKEnZsJ-15" value="nome_rua" style="shape=partialRectangle;connectable=0;fillColor=none;top=0;left=0;bottom=0;right=0;align=left;spacingLeft=6;overflow=hidden;whiteSpace=wrap;html=1;" parent="SHEvJp04jUSjWjKEnZsJ-13" vertex="1">
          <mxGeometry x="30" width="125" height="37" as="geometry">
            <mxRectangle width="125" height="37" as="alternateBounds" />
          </mxGeometry>
        </mxCell>
        <mxCell id="SHEvJp04jUSjWjKEnZsJ-161" value="" style="shape=tableRow;horizontal=0;startSize=0;swimlaneHead=0;swimlaneBody=0;fillColor=none;collapsible=0;dropTarget=0;points=[[0,0.5],[1,0.5]];portConstraint=eastwest;top=0;left=0;right=0;bottom=0;" parent="SHEvJp04jUSjWjKEnZsJ-0" vertex="1">
          <mxGeometry y="227" width="155" height="37" as="geometry" />
        </mxCell>
        <mxCell id="SHEvJp04jUSjWjKEnZsJ-162" value="" style="shape=partialRectangle;connectable=0;fillColor=none;top=0;left=0;bottom=0;right=0;editable=1;overflow=hidden;whiteSpace=wrap;html=1;" parent="SHEvJp04jUSjWjKEnZsJ-161" vertex="1">
          <mxGeometry width="30" height="37" as="geometry">
            <mxRectangle width="30" height="37" as="alternateBounds" />
          </mxGeometry>
        </mxCell>
        <mxCell id="SHEvJp04jUSjWjKEnZsJ-163" value="bairro" style="shape=partialRectangle;connectable=0;fillColor=none;top=0;left=0;bottom=0;right=0;align=left;spacingLeft=6;overflow=hidden;whiteSpace=wrap;html=1;" parent="SHEvJp04jUSjWjKEnZsJ-161" vertex="1">
          <mxGeometry x="30" width="125" height="37" as="geometry">
            <mxRectangle width="125" height="37" as="alternateBounds" />
          </mxGeometry>
        </mxCell>
        <mxCell id="SHEvJp04jUSjWjKEnZsJ-164" value="" style="shape=tableRow;horizontal=0;startSize=0;swimlaneHead=0;swimlaneBody=0;fillColor=none;collapsible=0;dropTarget=0;points=[[0,0.5],[1,0.5]];portConstraint=eastwest;top=0;left=0;right=0;bottom=0;" parent="SHEvJp04jUSjWjKEnZsJ-0" vertex="1">
          <mxGeometry y="264" width="155" height="37" as="geometry" />
        </mxCell>
        <mxCell id="SHEvJp04jUSjWjKEnZsJ-165" value="" style="shape=partialRectangle;connectable=0;fillColor=none;top=0;left=0;bottom=0;right=0;editable=1;overflow=hidden;whiteSpace=wrap;html=1;" parent="SHEvJp04jUSjWjKEnZsJ-164" vertex="1">
          <mxGeometry width="30" height="37" as="geometry">
            <mxRectangle width="30" height="37" as="alternateBounds" />
          </mxGeometry>
        </mxCell>
        <mxCell id="SHEvJp04jUSjWjKEnZsJ-166" value="cidade" style="shape=partialRectangle;connectable=0;fillColor=none;top=0;left=0;bottom=0;right=0;align=left;spacingLeft=6;overflow=hidden;whiteSpace=wrap;html=1;" parent="SHEvJp04jUSjWjKEnZsJ-164" vertex="1">
          <mxGeometry x="30" width="125" height="37" as="geometry">
            <mxRectangle width="125" height="37" as="alternateBounds" />
          </mxGeometry>
        </mxCell>
        <mxCell id="SHEvJp04jUSjWjKEnZsJ-32" value="contato" style="shape=table;startSize=23;container=1;collapsible=1;childLayout=tableLayout;fixedRows=1;rowLines=0;fontStyle=1;align=center;resizeLast=1;html=1;" parent="WIyWlLk6GJQsqaUBKTNV-1" vertex="1">
          <mxGeometry x="1" y="494" width="160" height="178" as="geometry" />
        </mxCell>
        <mxCell id="SHEvJp04jUSjWjKEnZsJ-33" value="" style="shape=tableRow;horizontal=0;startSize=0;swimlaneHead=0;swimlaneBody=0;fillColor=none;collapsible=0;dropTarget=0;points=[[0,0.5],[1,0.5]];portConstraint=eastwest;top=0;left=0;right=0;bottom=1;" parent="SHEvJp04jUSjWjKEnZsJ-32" vertex="1">
          <mxGeometry y="23" width="160" height="30" as="geometry" />
        </mxCell>
        <mxCell id="SHEvJp04jUSjWjKEnZsJ-34" value="(FK)" style="shape=partialRectangle;connectable=0;fillColor=none;top=0;left=0;bottom=0;right=0;fontStyle=1;overflow=hidden;whiteSpace=wrap;html=1;" parent="SHEvJp04jUSjWjKEnZsJ-33" vertex="1">
          <mxGeometry width="30" height="30" as="geometry">
            <mxRectangle width="30" height="30" as="alternateBounds" />
          </mxGeometry>
        </mxCell>
        <mxCell id="SHEvJp04jUSjWjKEnZsJ-35" value="id_aluno" style="shape=partialRectangle;connectable=0;fillColor=none;top=0;left=0;bottom=0;right=0;align=left;spacingLeft=6;fontStyle=5;overflow=hidden;whiteSpace=wrap;html=1;" parent="SHEvJp04jUSjWjKEnZsJ-33" vertex="1">
          <mxGeometry x="30" width="130" height="30" as="geometry">
            <mxRectangle width="130" height="30" as="alternateBounds" />
          </mxGeometry>
        </mxCell>
        <mxCell id="SHEvJp04jUSjWjKEnZsJ-36" value="" style="shape=tableRow;horizontal=0;startSize=0;swimlaneHead=0;swimlaneBody=0;fillColor=none;collapsible=0;dropTarget=0;points=[[0,0.5],[1,0.5]];portConstraint=eastwest;top=0;left=0;right=0;bottom=0;" parent="SHEvJp04jUSjWjKEnZsJ-32" vertex="1">
          <mxGeometry y="53" width="160" height="29" as="geometry" />
        </mxCell>
        <mxCell id="SHEvJp04jUSjWjKEnZsJ-37" value="" style="shape=partialRectangle;connectable=0;fillColor=none;top=0;left=0;bottom=0;right=0;editable=1;overflow=hidden;whiteSpace=wrap;html=1;" parent="SHEvJp04jUSjWjKEnZsJ-36" vertex="1">
          <mxGeometry width="30" height="29" as="geometry">
            <mxRectangle width="30" height="29" as="alternateBounds" />
          </mxGeometry>
        </mxCell>
        <mxCell id="SHEvJp04jUSjWjKEnZsJ-38" value="telefone_celular" style="shape=partialRectangle;connectable=0;fillColor=none;top=0;left=0;bottom=0;right=0;align=left;spacingLeft=6;overflow=hidden;whiteSpace=wrap;html=1;" parent="SHEvJp04jUSjWjKEnZsJ-36" vertex="1">
          <mxGeometry x="30" width="130" height="29" as="geometry">
            <mxRectangle width="130" height="29" as="alternateBounds" />
          </mxGeometry>
        </mxCell>
        <mxCell id="SHEvJp04jUSjWjKEnZsJ-39" value="" style="shape=tableRow;horizontal=0;startSize=0;swimlaneHead=0;swimlaneBody=0;fillColor=none;collapsible=0;dropTarget=0;points=[[0,0.5],[1,0.5]];portConstraint=eastwest;top=0;left=0;right=0;bottom=0;" parent="SHEvJp04jUSjWjKEnZsJ-32" vertex="1">
          <mxGeometry y="82" width="160" height="49" as="geometry" />
        </mxCell>
        <mxCell id="SHEvJp04jUSjWjKEnZsJ-40" value="" style="shape=partialRectangle;connectable=0;fillColor=none;top=0;left=0;bottom=0;right=0;editable=1;overflow=hidden;whiteSpace=wrap;html=1;" parent="SHEvJp04jUSjWjKEnZsJ-39" vertex="1">
          <mxGeometry width="30" height="49" as="geometry">
            <mxRectangle width="30" height="49" as="alternateBounds" />
          </mxGeometry>
        </mxCell>
        <mxCell id="SHEvJp04jUSjWjKEnZsJ-41" value="telefone_residencial" style="shape=partialRectangle;connectable=0;fillColor=none;top=0;left=0;bottom=0;right=0;align=left;spacingLeft=6;overflow=hidden;whiteSpace=wrap;html=1;" parent="SHEvJp04jUSjWjKEnZsJ-39" vertex="1">
          <mxGeometry x="30" width="130" height="49" as="geometry">
            <mxRectangle width="130" height="49" as="alternateBounds" />
          </mxGeometry>
        </mxCell>
        <mxCell id="SHEvJp04jUSjWjKEnZsJ-42" value="" style="shape=tableRow;horizontal=0;startSize=0;swimlaneHead=0;swimlaneBody=0;fillColor=none;collapsible=0;dropTarget=0;points=[[0,0.5],[1,0.5]];portConstraint=eastwest;top=0;left=0;right=0;bottom=0;" parent="SHEvJp04jUSjWjKEnZsJ-32" vertex="1">
          <mxGeometry y="131" width="160" height="20" as="geometry" />
        </mxCell>
        <mxCell id="SHEvJp04jUSjWjKEnZsJ-43" value="" style="shape=partialRectangle;connectable=0;fillColor=none;top=0;left=0;bottom=0;right=0;editable=1;overflow=hidden;whiteSpace=wrap;html=1;" parent="SHEvJp04jUSjWjKEnZsJ-42" vertex="1">
          <mxGeometry width="30" height="20" as="geometry">
            <mxRectangle width="30" height="20" as="alternateBounds" />
          </mxGeometry>
        </mxCell>
        <mxCell id="SHEvJp04jUSjWjKEnZsJ-44" value="email" style="shape=partialRectangle;connectable=0;fillColor=none;top=0;left=0;bottom=0;right=0;align=left;spacingLeft=6;overflow=hidden;whiteSpace=wrap;html=1;" parent="SHEvJp04jUSjWjKEnZsJ-42" vertex="1">
          <mxGeometry x="30" width="130" height="20" as="geometry">
            <mxRectangle width="130" height="20" as="alternateBounds" />
          </mxGeometry>
        </mxCell>
        <mxCell id="SHEvJp04jUSjWjKEnZsJ-45" value="" style="shape=tableRow;horizontal=0;startSize=0;swimlaneHead=0;swimlaneBody=0;fillColor=none;collapsible=0;dropTarget=0;points=[[0,0.5],[1,0.5]];portConstraint=eastwest;top=0;left=0;right=0;bottom=0;" parent="SHEvJp04jUSjWjKEnZsJ-32" vertex="1">
          <mxGeometry y="151" width="160" height="20" as="geometry" />
        </mxCell>
        <mxCell id="SHEvJp04jUSjWjKEnZsJ-46" value="" style="shape=partialRectangle;connectable=0;fillColor=none;top=0;left=0;bottom=0;right=0;editable=1;overflow=hidden;whiteSpace=wrap;html=1;" parent="SHEvJp04jUSjWjKEnZsJ-45" vertex="1">
          <mxGeometry width="30" height="20" as="geometry">
            <mxRectangle width="30" height="20" as="alternateBounds" />
          </mxGeometry>
        </mxCell>
        <mxCell id="SHEvJp04jUSjWjKEnZsJ-47" value="" style="shape=partialRectangle;connectable=0;fillColor=none;top=0;left=0;bottom=0;right=0;align=left;spacingLeft=6;overflow=hidden;whiteSpace=wrap;html=1;" parent="SHEvJp04jUSjWjKEnZsJ-45" vertex="1">
          <mxGeometry x="30" width="130" height="20" as="geometry">
            <mxRectangle width="130" height="20" as="alternateBounds" />
          </mxGeometry>
        </mxCell>
        <mxCell id="SHEvJp04jUSjWjKEnZsJ-49" value="possui" style="shape=rhombus;perimeter=rhombusPerimeter;whiteSpace=wrap;html=1;align=center;" parent="WIyWlLk6GJQsqaUBKTNV-1" vertex="1">
          <mxGeometry x="30" y="369" width="105" height="46" as="geometry" />
        </mxCell>
        <mxCell id="SHEvJp04jUSjWjKEnZsJ-50" value="" style="endArrow=open;endFill=1;endSize=12;html=1;rounded=0;exitX=0.5;exitY=1;exitDx=0;exitDy=0;" parent="WIyWlLk6GJQsqaUBKTNV-1" source="SHEvJp04jUSjWjKEnZsJ-49" edge="1">
          <mxGeometry width="160" relative="1" as="geometry">
            <mxPoint x="80.5" y="431" as="sourcePoint" />
            <mxPoint x="83" y="490" as="targetPoint" />
          </mxGeometry>
        </mxCell>
        <mxCell id="SHEvJp04jUSjWjKEnZsJ-70" value="faz" style="shape=rhombus;perimeter=rhombusPerimeter;whiteSpace=wrap;html=1;align=center;" parent="WIyWlLk6GJQsqaUBKTNV-1" vertex="1">
          <mxGeometry x="222" y="60" width="90" height="48" as="geometry" />
        </mxCell>
        <mxCell id="SHEvJp04jUSjWjKEnZsJ-71" value="departamento" style="shape=table;startSize=30;container=1;collapsible=1;childLayout=tableLayout;fixedRows=1;rowLines=0;fontStyle=1;align=center;resizeLast=1;html=1;" parent="WIyWlLk6GJQsqaUBKTNV-1" vertex="1">
          <mxGeometry x="676" y="406" width="142" height="204" as="geometry" />
        </mxCell>
        <mxCell id="SHEvJp04jUSjWjKEnZsJ-72" value="" style="shape=tableRow;horizontal=0;startSize=0;swimlaneHead=0;swimlaneBody=0;fillColor=none;collapsible=0;dropTarget=0;points=[[0,0.5],[1,0.5]];portConstraint=eastwest;top=0;left=0;right=0;bottom=1;" parent="SHEvJp04jUSjWjKEnZsJ-71" vertex="1">
          <mxGeometry y="30" width="142" height="30" as="geometry" />
        </mxCell>
        <mxCell id="SHEvJp04jUSjWjKEnZsJ-73" value="(PK)" style="shape=partialRectangle;connectable=0;fillColor=none;top=0;left=0;bottom=0;right=0;fontStyle=1;overflow=hidden;whiteSpace=wrap;html=1;" parent="SHEvJp04jUSjWjKEnZsJ-72" vertex="1">
          <mxGeometry width="30" height="30" as="geometry">
            <mxRectangle width="30" height="30" as="alternateBounds" />
          </mxGeometry>
        </mxCell>
        <mxCell id="SHEvJp04jUSjWjKEnZsJ-74" value="id_departamento" style="shape=partialRectangle;connectable=0;fillColor=none;top=0;left=0;bottom=0;right=0;align=left;spacingLeft=6;fontStyle=5;overflow=hidden;whiteSpace=wrap;html=1;" parent="SHEvJp04jUSjWjKEnZsJ-72" vertex="1">
          <mxGeometry x="30" width="112" height="30" as="geometry">
            <mxRectangle width="112" height="30" as="alternateBounds" />
          </mxGeometry>
        </mxCell>
        <mxCell id="SHEvJp04jUSjWjKEnZsJ-75" value="" style="shape=tableRow;horizontal=0;startSize=0;swimlaneHead=0;swimlaneBody=0;fillColor=none;collapsible=0;dropTarget=0;points=[[0,0.5],[1,0.5]];portConstraint=eastwest;top=0;left=0;right=0;bottom=0;" parent="SHEvJp04jUSjWjKEnZsJ-71" vertex="1">
          <mxGeometry y="60" width="142" height="36" as="geometry" />
        </mxCell>
        <mxCell id="SHEvJp04jUSjWjKEnZsJ-76" value="" style="shape=partialRectangle;connectable=0;fillColor=none;top=0;left=0;bottom=0;right=0;editable=1;overflow=hidden;whiteSpace=wrap;html=1;" parent="SHEvJp04jUSjWjKEnZsJ-75" vertex="1">
          <mxGeometry width="30" height="36" as="geometry">
            <mxRectangle width="30" height="36" as="alternateBounds" />
          </mxGeometry>
        </mxCell>
        <mxCell id="SHEvJp04jUSjWjKEnZsJ-77" value="id_ra" style="shape=partialRectangle;connectable=0;fillColor=none;top=0;left=0;bottom=0;right=0;align=left;spacingLeft=6;overflow=hidden;whiteSpace=wrap;html=1;" parent="SHEvJp04jUSjWjKEnZsJ-75" vertex="1">
          <mxGeometry x="30" width="112" height="36" as="geometry">
            <mxRectangle width="112" height="36" as="alternateBounds" />
          </mxGeometry>
        </mxCell>
        <mxCell id="SHEvJp04jUSjWjKEnZsJ-78" value="" style="shape=tableRow;horizontal=0;startSize=0;swimlaneHead=0;swimlaneBody=0;fillColor=none;collapsible=0;dropTarget=0;points=[[0,0.5],[1,0.5]];portConstraint=eastwest;top=0;left=0;right=0;bottom=0;" parent="SHEvJp04jUSjWjKEnZsJ-71" vertex="1">
          <mxGeometry y="96" width="142" height="20" as="geometry" />
        </mxCell>
        <mxCell id="SHEvJp04jUSjWjKEnZsJ-79" value="" style="shape=partialRectangle;connectable=0;fillColor=none;top=0;left=0;bottom=0;right=0;editable=1;overflow=hidden;whiteSpace=wrap;html=1;" parent="SHEvJp04jUSjWjKEnZsJ-78" vertex="1">
          <mxGeometry width="30" height="20" as="geometry">
            <mxRectangle width="30" height="20" as="alternateBounds" />
          </mxGeometry>
        </mxCell>
        <mxCell id="SHEvJp04jUSjWjKEnZsJ-80" value="area_da_saude" style="shape=partialRectangle;connectable=0;fillColor=none;top=0;left=0;bottom=0;right=0;align=left;spacingLeft=6;overflow=hidden;whiteSpace=wrap;html=1;" parent="SHEvJp04jUSjWjKEnZsJ-78" vertex="1">
          <mxGeometry x="30" width="112" height="20" as="geometry">
            <mxRectangle width="112" height="20" as="alternateBounds" />
          </mxGeometry>
        </mxCell>
        <mxCell id="SHEvJp04jUSjWjKEnZsJ-81" value="" style="shape=tableRow;horizontal=0;startSize=0;swimlaneHead=0;swimlaneBody=0;fillColor=none;collapsible=0;dropTarget=0;points=[[0,0.5],[1,0.5]];portConstraint=eastwest;top=0;left=0;right=0;bottom=0;" parent="SHEvJp04jUSjWjKEnZsJ-71" vertex="1">
          <mxGeometry y="116" width="142" height="39" as="geometry" />
        </mxCell>
        <mxCell id="SHEvJp04jUSjWjKEnZsJ-82" value="" style="shape=partialRectangle;connectable=0;fillColor=none;top=0;left=0;bottom=0;right=0;editable=1;overflow=hidden;whiteSpace=wrap;html=1;" parent="SHEvJp04jUSjWjKEnZsJ-81" vertex="1">
          <mxGeometry width="30" height="39" as="geometry">
            <mxRectangle width="30" height="39" as="alternateBounds" />
          </mxGeometry>
        </mxCell>
        <mxCell id="SHEvJp04jUSjWjKEnZsJ-83" value="" style="shape=partialRectangle;connectable=0;fillColor=none;top=0;left=0;bottom=0;right=0;align=left;spacingLeft=6;overflow=hidden;whiteSpace=wrap;html=1;" parent="SHEvJp04jUSjWjKEnZsJ-81" vertex="1">
          <mxGeometry x="30" width="112" height="39" as="geometry">
            <mxRectangle width="112" height="39" as="alternateBounds" />
          </mxGeometry>
        </mxCell>
        <mxCell id="SHEvJp04jUSjWjKEnZsJ-84" value="" style="shape=tableRow;horizontal=0;startSize=0;swimlaneHead=0;swimlaneBody=0;fillColor=none;collapsible=0;dropTarget=0;points=[[0,0.5],[1,0.5]];portConstraint=eastwest;top=0;left=0;right=0;bottom=0;" parent="SHEvJp04jUSjWjKEnZsJ-71" vertex="1">
          <mxGeometry y="155" width="142" height="29" as="geometry" />
        </mxCell>
        <mxCell id="SHEvJp04jUSjWjKEnZsJ-85" value="" style="shape=partialRectangle;connectable=0;fillColor=none;top=0;left=0;bottom=0;right=0;editable=1;overflow=hidden;whiteSpace=wrap;html=1;" parent="SHEvJp04jUSjWjKEnZsJ-84" vertex="1">
          <mxGeometry width="30" height="29" as="geometry">
            <mxRectangle width="30" height="29" as="alternateBounds" />
          </mxGeometry>
        </mxCell>
        <mxCell id="SHEvJp04jUSjWjKEnZsJ-86" value="" style="shape=partialRectangle;connectable=0;fillColor=none;top=0;left=0;bottom=0;right=0;align=left;spacingLeft=6;overflow=hidden;whiteSpace=wrap;html=1;" parent="SHEvJp04jUSjWjKEnZsJ-84" vertex="1">
          <mxGeometry x="30" width="112" height="29" as="geometry">
            <mxRectangle width="112" height="29" as="alternateBounds" />
          </mxGeometry>
        </mxCell>
        <mxCell id="SHEvJp04jUSjWjKEnZsJ-87" value="" style="shape=tableRow;horizontal=0;startSize=0;swimlaneHead=0;swimlaneBody=0;fillColor=none;collapsible=0;dropTarget=0;points=[[0,0.5],[1,0.5]];portConstraint=eastwest;top=0;left=0;right=0;bottom=0;" parent="SHEvJp04jUSjWjKEnZsJ-71" vertex="1">
          <mxGeometry y="184" width="142" height="20" as="geometry" />
        </mxCell>
        <mxCell id="SHEvJp04jUSjWjKEnZsJ-88" value="" style="shape=partialRectangle;connectable=0;fillColor=none;top=0;left=0;bottom=0;right=0;editable=1;overflow=hidden;whiteSpace=wrap;html=1;" parent="SHEvJp04jUSjWjKEnZsJ-87" vertex="1">
          <mxGeometry width="30" height="20" as="geometry">
            <mxRectangle width="30" height="20" as="alternateBounds" />
          </mxGeometry>
        </mxCell>
        <mxCell id="SHEvJp04jUSjWjKEnZsJ-89" value="" style="shape=partialRectangle;connectable=0;fillColor=none;top=0;left=0;bottom=0;right=0;align=left;spacingLeft=6;overflow=hidden;whiteSpace=wrap;html=1;" parent="SHEvJp04jUSjWjKEnZsJ-87" vertex="1">
          <mxGeometry x="30" width="112" height="20" as="geometry">
            <mxRectangle width="112" height="20" as="alternateBounds" />
          </mxGeometry>
        </mxCell>
        <mxCell id="SHEvJp04jUSjWjKEnZsJ-90" value="possui" style="shape=rhombus;perimeter=rhombusPerimeter;whiteSpace=wrap;html=1;align=center;" parent="WIyWlLk6GJQsqaUBKTNV-1" vertex="1">
          <mxGeometry x="561" y="61" width="73" height="40" as="geometry" />
        </mxCell>
        <mxCell id="SHEvJp04jUSjWjKEnZsJ-92" value="" style="endArrow=open;endFill=1;endSize=12;html=1;rounded=0;" parent="WIyWlLk6GJQsqaUBKTNV-1" edge="1">
          <mxGeometry width="160" relative="1" as="geometry">
            <mxPoint x="162" y="84.5" as="sourcePoint" />
            <mxPoint x="222" y="84.5" as="targetPoint" />
          </mxGeometry>
        </mxCell>
        <mxCell id="SHEvJp04jUSjWjKEnZsJ-93" value="" style="endArrow=open;endFill=1;endSize=12;html=1;rounded=0;" parent="WIyWlLk6GJQsqaUBKTNV-1" edge="1">
          <mxGeometry width="160" relative="1" as="geometry">
            <mxPoint x="310" y="84.5" as="sourcePoint" />
            <mxPoint x="360" y="85" as="targetPoint" />
          </mxGeometry>
        </mxCell>
        <mxCell id="SHEvJp04jUSjWjKEnZsJ-94" value="" style="endArrow=open;endFill=1;endSize=12;html=1;rounded=0;" parent="WIyWlLk6GJQsqaUBKTNV-1" edge="1">
          <mxGeometry width="160" relative="1" as="geometry">
            <mxPoint x="511" y="80.5" as="sourcePoint" />
            <mxPoint x="561" y="81" as="targetPoint" />
          </mxGeometry>
        </mxCell>
        <mxCell id="SHEvJp04jUSjWjKEnZsJ-95" value="matriculas" style="shape=table;startSize=30;container=1;collapsible=1;childLayout=tableLayout;fixedRows=1;rowLines=0;fontStyle=1;align=center;resizeLast=1;html=1;" parent="WIyWlLk6GJQsqaUBKTNV-1" vertex="1">
          <mxGeometry x="360" y="14" width="150" height="204" as="geometry" />
        </mxCell>
        <mxCell id="SHEvJp04jUSjWjKEnZsJ-96" value="" style="shape=tableRow;horizontal=0;startSize=0;swimlaneHead=0;swimlaneBody=0;fillColor=none;collapsible=0;dropTarget=0;points=[[0,0.5],[1,0.5]];portConstraint=eastwest;top=0;left=0;right=0;bottom=1;" parent="SHEvJp04jUSjWjKEnZsJ-95" vertex="1">
          <mxGeometry y="30" width="150" height="30" as="geometry" />
        </mxCell>
        <mxCell id="SHEvJp04jUSjWjKEnZsJ-97" value="(PK)" style="shape=partialRectangle;connectable=0;fillColor=none;top=0;left=0;bottom=0;right=0;fontStyle=1;overflow=hidden;whiteSpace=wrap;html=1;" parent="SHEvJp04jUSjWjKEnZsJ-96" vertex="1">
          <mxGeometry width="30" height="30" as="geometry">
            <mxRectangle width="30" height="30" as="alternateBounds" />
          </mxGeometry>
        </mxCell>
        <mxCell id="SHEvJp04jUSjWjKEnZsJ-98" value="id_matriculas" style="shape=partialRectangle;connectable=0;fillColor=none;top=0;left=0;bottom=0;right=0;align=left;spacingLeft=6;fontStyle=5;overflow=hidden;whiteSpace=wrap;html=1;" parent="SHEvJp04jUSjWjKEnZsJ-96" vertex="1">
          <mxGeometry x="30" width="120" height="30" as="geometry">
            <mxRectangle width="120" height="30" as="alternateBounds" />
          </mxGeometry>
        </mxCell>
        <mxCell id="SHEvJp04jUSjWjKEnZsJ-99" value="" style="shape=tableRow;horizontal=0;startSize=0;swimlaneHead=0;swimlaneBody=0;fillColor=none;collapsible=0;dropTarget=0;points=[[0,0.5],[1,0.5]];portConstraint=eastwest;top=0;left=0;right=0;bottom=0;" parent="SHEvJp04jUSjWjKEnZsJ-95" vertex="1">
          <mxGeometry y="60" width="150" height="36" as="geometry" />
        </mxCell>
        <mxCell id="SHEvJp04jUSjWjKEnZsJ-100" value="(FK)" style="shape=partialRectangle;connectable=0;fillColor=none;top=0;left=0;bottom=0;right=0;editable=1;overflow=hidden;whiteSpace=wrap;html=1;" parent="SHEvJp04jUSjWjKEnZsJ-99" vertex="1">
          <mxGeometry width="30" height="36" as="geometry">
            <mxRectangle width="30" height="36" as="alternateBounds" />
          </mxGeometry>
        </mxCell>
        <mxCell id="SHEvJp04jUSjWjKEnZsJ-101" value="&lt;span style=&quot;font-weight: 700; text-decoration-line: underline;&quot;&gt;id_aluno&lt;/span&gt;" style="shape=partialRectangle;connectable=0;fillColor=none;top=0;left=0;bottom=0;right=0;align=left;spacingLeft=6;overflow=hidden;whiteSpace=wrap;html=1;" parent="SHEvJp04jUSjWjKEnZsJ-99" vertex="1">
          <mxGeometry x="30" width="120" height="36" as="geometry">
            <mxRectangle width="120" height="36" as="alternateBounds" />
          </mxGeometry>
        </mxCell>
        <mxCell id="SHEvJp04jUSjWjKEnZsJ-102" value="" style="shape=tableRow;horizontal=0;startSize=0;swimlaneHead=0;swimlaneBody=0;fillColor=none;collapsible=0;dropTarget=0;points=[[0,0.5],[1,0.5]];portConstraint=eastwest;top=0;left=0;right=0;bottom=0;" parent="SHEvJp04jUSjWjKEnZsJ-95" vertex="1">
          <mxGeometry y="96" width="150" height="20" as="geometry" />
        </mxCell>
        <mxCell id="SHEvJp04jUSjWjKEnZsJ-103" value="(FK)" style="shape=partialRectangle;connectable=0;fillColor=none;top=0;left=0;bottom=0;right=0;editable=1;overflow=hidden;whiteSpace=wrap;html=1;" parent="SHEvJp04jUSjWjKEnZsJ-102" vertex="1">
          <mxGeometry width="30" height="20" as="geometry">
            <mxRectangle width="30" height="20" as="alternateBounds" />
          </mxGeometry>
        </mxCell>
        <mxCell id="SHEvJp04jUSjWjKEnZsJ-104" value="&lt;span style=&quot;font-weight: 700; text-decoration-line: underline;&quot;&gt;id_cursos&lt;/span&gt;" style="shape=partialRectangle;connectable=0;fillColor=none;top=0;left=0;bottom=0;right=0;align=left;spacingLeft=6;overflow=hidden;whiteSpace=wrap;html=1;" parent="SHEvJp04jUSjWjKEnZsJ-102" vertex="1">
          <mxGeometry x="30" width="120" height="20" as="geometry">
            <mxRectangle width="120" height="20" as="alternateBounds" />
          </mxGeometry>
        </mxCell>
        <mxCell id="SHEvJp04jUSjWjKEnZsJ-105" value="" style="shape=tableRow;horizontal=0;startSize=0;swimlaneHead=0;swimlaneBody=0;fillColor=none;collapsible=0;dropTarget=0;points=[[0,0.5],[1,0.5]];portConstraint=eastwest;top=0;left=0;right=0;bottom=0;" parent="SHEvJp04jUSjWjKEnZsJ-95" vertex="1">
          <mxGeometry y="116" width="150" height="39" as="geometry" />
        </mxCell>
        <mxCell id="SHEvJp04jUSjWjKEnZsJ-106" value="" style="shape=partialRectangle;connectable=0;fillColor=none;top=0;left=0;bottom=0;right=0;editable=1;overflow=hidden;whiteSpace=wrap;html=1;" parent="SHEvJp04jUSjWjKEnZsJ-105" vertex="1">
          <mxGeometry width="30" height="39" as="geometry">
            <mxRectangle width="30" height="39" as="alternateBounds" />
          </mxGeometry>
        </mxCell>
        <mxCell id="SHEvJp04jUSjWjKEnZsJ-107" value="&#xa;&lt;span style=&quot;color: rgb(0, 0, 0); font-family: Helvetica; font-size: 12px; font-style: normal; font-variant-ligatures: normal; font-variant-caps: normal; font-weight: 400; letter-spacing: normal; orphans: 2; text-align: left; text-indent: 0px; text-transform: none; widows: 2; word-spacing: 0px; -webkit-text-stroke-width: 0px; white-space: normal; background-color: rgb(251, 251, 251); text-decoration-thickness: initial; text-decoration-style: initial; text-decoration-color: initial; display: inline !important; float: none;&quot;&gt;documentacao&lt;/span&gt;&#xa;&#xa;" style="shape=partialRectangle;connectable=0;fillColor=none;top=0;left=0;bottom=0;right=0;align=left;spacingLeft=6;overflow=hidden;whiteSpace=wrap;html=1;" parent="SHEvJp04jUSjWjKEnZsJ-105" vertex="1">
          <mxGeometry x="30" width="120" height="39" as="geometry">
            <mxRectangle width="120" height="39" as="alternateBounds" />
          </mxGeometry>
        </mxCell>
        <mxCell id="SHEvJp04jUSjWjKEnZsJ-108" value="" style="shape=tableRow;horizontal=0;startSize=0;swimlaneHead=0;swimlaneBody=0;fillColor=none;collapsible=0;dropTarget=0;points=[[0,0.5],[1,0.5]];portConstraint=eastwest;top=0;left=0;right=0;bottom=0;" parent="SHEvJp04jUSjWjKEnZsJ-95" vertex="1">
          <mxGeometry y="155" width="150" height="29" as="geometry" />
        </mxCell>
        <mxCell id="SHEvJp04jUSjWjKEnZsJ-109" value="" style="shape=partialRectangle;connectable=0;fillColor=none;top=0;left=0;bottom=0;right=0;editable=1;overflow=hidden;whiteSpace=wrap;html=1;" parent="SHEvJp04jUSjWjKEnZsJ-108" vertex="1">
          <mxGeometry width="30" height="29" as="geometry">
            <mxRectangle width="30" height="29" as="alternateBounds" />
          </mxGeometry>
        </mxCell>
        <mxCell id="SHEvJp04jUSjWjKEnZsJ-110" value="" style="shape=partialRectangle;connectable=0;fillColor=none;top=0;left=0;bottom=0;right=0;align=left;spacingLeft=6;overflow=hidden;whiteSpace=wrap;html=1;" parent="SHEvJp04jUSjWjKEnZsJ-108" vertex="1">
          <mxGeometry x="30" width="120" height="29" as="geometry">
            <mxRectangle width="120" height="29" as="alternateBounds" />
          </mxGeometry>
        </mxCell>
        <mxCell id="SHEvJp04jUSjWjKEnZsJ-111" value="" style="shape=tableRow;horizontal=0;startSize=0;swimlaneHead=0;swimlaneBody=0;fillColor=none;collapsible=0;dropTarget=0;points=[[0,0.5],[1,0.5]];portConstraint=eastwest;top=0;left=0;right=0;bottom=0;" parent="SHEvJp04jUSjWjKEnZsJ-95" vertex="1">
          <mxGeometry y="184" width="150" height="20" as="geometry" />
        </mxCell>
        <mxCell id="SHEvJp04jUSjWjKEnZsJ-112" value="" style="shape=partialRectangle;connectable=0;fillColor=none;top=0;left=0;bottom=0;right=0;editable=1;overflow=hidden;whiteSpace=wrap;html=1;" parent="SHEvJp04jUSjWjKEnZsJ-111" vertex="1">
          <mxGeometry width="30" height="20" as="geometry">
            <mxRectangle width="30" height="20" as="alternateBounds" />
          </mxGeometry>
        </mxCell>
        <mxCell id="SHEvJp04jUSjWjKEnZsJ-113" value="" style="shape=partialRectangle;connectable=0;fillColor=none;top=0;left=0;bottom=0;right=0;align=left;spacingLeft=6;overflow=hidden;whiteSpace=wrap;html=1;" parent="SHEvJp04jUSjWjKEnZsJ-111" vertex="1">
          <mxGeometry x="30" width="120" height="20" as="geometry">
            <mxRectangle width="120" height="20" as="alternateBounds" />
          </mxGeometry>
        </mxCell>
        <mxCell id="SHEvJp04jUSjWjKEnZsJ-114" value="" style="endArrow=open;endFill=1;endSize=12;html=1;rounded=0;" parent="WIyWlLk6GJQsqaUBKTNV-1" edge="1">
          <mxGeometry width="160" relative="1" as="geometry">
            <mxPoint x="634" y="81.5" as="sourcePoint" />
            <mxPoint x="664" y="82" as="targetPoint" />
          </mxGeometry>
        </mxCell>
        <mxCell id="SHEvJp04jUSjWjKEnZsJ-115" value="possui" style="shape=rhombus;perimeter=rhombusPerimeter;whiteSpace=wrap;html=1;align=center;" parent="WIyWlLk6GJQsqaUBKTNV-1" vertex="1">
          <mxGeometry x="697.5" y="302" width="105" height="46" as="geometry" />
        </mxCell>
        <mxCell id="SHEvJp04jUSjWjKEnZsJ-116" value="" style="endArrow=open;endFill=1;endSize=12;html=1;rounded=0;" parent="WIyWlLk6GJQsqaUBKTNV-1" edge="1">
          <mxGeometry width="160" relative="1" as="geometry">
            <mxPoint x="749" y="243" as="sourcePoint" />
            <mxPoint x="750" y="300" as="targetPoint" />
          </mxGeometry>
        </mxCell>
        <mxCell id="SHEvJp04jUSjWjKEnZsJ-117" value="" style="endArrow=open;endFill=1;endSize=12;html=1;rounded=0;" parent="WIyWlLk6GJQsqaUBKTNV-1" edge="1">
          <mxGeometry width="160" relative="1" as="geometry">
            <mxPoint x="751" y="350" as="sourcePoint" />
            <mxPoint x="751" y="400" as="targetPoint" />
          </mxGeometry>
        </mxCell>
        <mxCell id="SHEvJp04jUSjWjKEnZsJ-118" value="1:1" style="text;html=1;align=center;verticalAlign=middle;whiteSpace=wrap;rounded=0;" parent="WIyWlLk6GJQsqaUBKTNV-1" vertex="1">
          <mxGeometry x="150" y="40" width="60" height="30" as="geometry" />
        </mxCell>
        <mxCell id="SHEvJp04jUSjWjKEnZsJ-119" value="1:N" style="text;html=1;align=center;verticalAlign=middle;whiteSpace=wrap;rounded=0;" parent="WIyWlLk6GJQsqaUBKTNV-1" vertex="1">
          <mxGeometry x="312" y="40" width="60" height="30" as="geometry" />
        </mxCell>
        <mxCell id="SHEvJp04jUSjWjKEnZsJ-120" value="1" style="text;html=1;align=center;verticalAlign=middle;whiteSpace=wrap;rounded=0;" parent="WIyWlLk6GJQsqaUBKTNV-1" vertex="1">
          <mxGeometry x="620" y="16" width="60" height="30" as="geometry" />
        </mxCell>
        <mxCell id="SHEvJp04jUSjWjKEnZsJ-51" value="cursos" style="shape=table;startSize=30;container=1;collapsible=1;childLayout=tableLayout;fixedRows=1;rowLines=0;fontStyle=1;align=center;resizeLast=1;html=1;" parent="WIyWlLk6GJQsqaUBKTNV-1" vertex="1">
          <mxGeometry x="667" y="10" width="150" height="230" as="geometry" />
        </mxCell>
        <mxCell id="SHEvJp04jUSjWjKEnZsJ-52" value="" style="shape=tableRow;horizontal=0;startSize=0;swimlaneHead=0;swimlaneBody=0;fillColor=none;collapsible=0;dropTarget=0;points=[[0,0.5],[1,0.5]];portConstraint=eastwest;top=0;left=0;right=0;bottom=1;" parent="SHEvJp04jUSjWjKEnZsJ-51" vertex="1">
          <mxGeometry y="30" width="150" height="30" as="geometry" />
        </mxCell>
        <mxCell id="SHEvJp04jUSjWjKEnZsJ-53" value="(PK)" style="shape=partialRectangle;connectable=0;fillColor=none;top=0;left=0;bottom=0;right=0;fontStyle=1;overflow=hidden;whiteSpace=wrap;html=1;" parent="SHEvJp04jUSjWjKEnZsJ-52" vertex="1">
          <mxGeometry width="30" height="30" as="geometry">
            <mxRectangle width="30" height="30" as="alternateBounds" />
          </mxGeometry>
        </mxCell>
        <mxCell id="SHEvJp04jUSjWjKEnZsJ-54" value="id_cursos" style="shape=partialRectangle;connectable=0;fillColor=none;top=0;left=0;bottom=0;right=0;align=left;spacingLeft=6;fontStyle=5;overflow=hidden;whiteSpace=wrap;html=1;" parent="SHEvJp04jUSjWjKEnZsJ-52" vertex="1">
          <mxGeometry x="30" width="120" height="30" as="geometry">
            <mxRectangle width="120" height="30" as="alternateBounds" />
          </mxGeometry>
        </mxCell>
        <mxCell id="SHEvJp04jUSjWjKEnZsJ-55" value="" style="shape=tableRow;horizontal=0;startSize=0;swimlaneHead=0;swimlaneBody=0;fillColor=none;collapsible=0;dropTarget=0;points=[[0,0.5],[1,0.5]];portConstraint=eastwest;top=0;left=0;right=0;bottom=0;" parent="SHEvJp04jUSjWjKEnZsJ-51" vertex="1">
          <mxGeometry y="60" width="150" height="30" as="geometry" />
        </mxCell>
        <mxCell id="SHEvJp04jUSjWjKEnZsJ-56" value="(FK)" style="shape=partialRectangle;connectable=0;fillColor=none;top=0;left=0;bottom=0;right=0;editable=1;overflow=hidden;whiteSpace=wrap;html=1;" parent="SHEvJp04jUSjWjKEnZsJ-55" vertex="1">
          <mxGeometry width="30" height="30" as="geometry">
            <mxRectangle width="30" height="30" as="alternateBounds" />
          </mxGeometry>
        </mxCell>
        <mxCell id="SHEvJp04jUSjWjKEnZsJ-57" value="&lt;span style=&quot;font-weight: 700; text-decoration-line: underline;&quot;&gt;id_matriculas&lt;/span&gt;" style="shape=partialRectangle;connectable=0;fillColor=none;top=0;left=0;bottom=0;right=0;align=left;spacingLeft=6;overflow=hidden;whiteSpace=wrap;html=1;" parent="SHEvJp04jUSjWjKEnZsJ-55" vertex="1">
          <mxGeometry x="30" width="120" height="30" as="geometry">
            <mxRectangle width="120" height="30" as="alternateBounds" />
          </mxGeometry>
        </mxCell>
        <mxCell id="SHEvJp04jUSjWjKEnZsJ-58" value="" style="shape=tableRow;horizontal=0;startSize=0;swimlaneHead=0;swimlaneBody=0;fillColor=none;collapsible=0;dropTarget=0;points=[[0,0.5],[1,0.5]];portConstraint=eastwest;top=0;left=0;right=0;bottom=0;" parent="SHEvJp04jUSjWjKEnZsJ-51" vertex="1">
          <mxGeometry y="90" width="150" height="30" as="geometry" />
        </mxCell>
        <mxCell id="SHEvJp04jUSjWjKEnZsJ-59" value="(FK)" style="shape=partialRectangle;connectable=0;fillColor=none;top=0;left=0;bottom=0;right=0;editable=1;overflow=hidden;whiteSpace=wrap;html=1;" parent="SHEvJp04jUSjWjKEnZsJ-58" vertex="1">
          <mxGeometry width="30" height="30" as="geometry">
            <mxRectangle width="30" height="30" as="alternateBounds" />
          </mxGeometry>
        </mxCell>
        <mxCell id="SHEvJp04jUSjWjKEnZsJ-60" value="&lt;span style=&quot;font-weight: 700; text-decoration-line: underline;&quot;&gt;id_aluno&lt;/span&gt;" style="shape=partialRectangle;connectable=0;fillColor=none;top=0;left=0;bottom=0;right=0;align=left;spacingLeft=6;overflow=hidden;whiteSpace=wrap;html=1;" parent="SHEvJp04jUSjWjKEnZsJ-58" vertex="1">
          <mxGeometry x="30" width="120" height="30" as="geometry">
            <mxRectangle width="120" height="30" as="alternateBounds" />
          </mxGeometry>
        </mxCell>
        <mxCell id="SHEvJp04jUSjWjKEnZsJ-61" value="" style="shape=tableRow;horizontal=0;startSize=0;swimlaneHead=0;swimlaneBody=0;fillColor=none;collapsible=0;dropTarget=0;points=[[0,0.5],[1,0.5]];portConstraint=eastwest;top=0;left=0;right=0;bottom=0;" parent="SHEvJp04jUSjWjKEnZsJ-51" vertex="1">
          <mxGeometry y="120" width="150" height="39" as="geometry" />
        </mxCell>
        <mxCell id="SHEvJp04jUSjWjKEnZsJ-62" value="" style="shape=partialRectangle;connectable=0;fillColor=none;top=0;left=0;bottom=0;right=0;editable=1;overflow=hidden;whiteSpace=wrap;html=1;" parent="SHEvJp04jUSjWjKEnZsJ-61" vertex="1">
          <mxGeometry width="30" height="39" as="geometry">
            <mxRectangle width="30" height="39" as="alternateBounds" />
          </mxGeometry>
        </mxCell>
        <mxCell id="SHEvJp04jUSjWjKEnZsJ-63" value="area_engenharia" style="shape=partialRectangle;connectable=0;fillColor=none;top=0;left=0;bottom=0;right=0;align=left;spacingLeft=6;overflow=hidden;whiteSpace=wrap;html=1;" parent="SHEvJp04jUSjWjKEnZsJ-61" vertex="1">
          <mxGeometry x="30" width="120" height="39" as="geometry">
            <mxRectangle width="120" height="39" as="alternateBounds" />
          </mxGeometry>
        </mxCell>
        <mxCell id="SHEvJp04jUSjWjKEnZsJ-64" value="" style="shape=tableRow;horizontal=0;startSize=0;swimlaneHead=0;swimlaneBody=0;fillColor=none;collapsible=0;dropTarget=0;points=[[0,0.5],[1,0.5]];portConstraint=eastwest;top=0;left=0;right=0;bottom=0;" parent="SHEvJp04jUSjWjKEnZsJ-51" vertex="1">
          <mxGeometry y="159" width="150" height="20" as="geometry" />
        </mxCell>
        <mxCell id="SHEvJp04jUSjWjKEnZsJ-65" value="" style="shape=partialRectangle;connectable=0;fillColor=none;top=0;left=0;bottom=0;right=0;editable=1;overflow=hidden;whiteSpace=wrap;html=1;" parent="SHEvJp04jUSjWjKEnZsJ-64" vertex="1">
          <mxGeometry width="30" height="20" as="geometry">
            <mxRectangle width="30" height="20" as="alternateBounds" />
          </mxGeometry>
        </mxCell>
        <mxCell id="SHEvJp04jUSjWjKEnZsJ-66" value="&amp;nbsp;area_saude" style="shape=partialRectangle;connectable=0;fillColor=none;top=0;left=0;bottom=0;right=0;align=left;spacingLeft=6;overflow=hidden;whiteSpace=wrap;html=1;" parent="SHEvJp04jUSjWjKEnZsJ-64" vertex="1">
          <mxGeometry x="30" width="120" height="20" as="geometry">
            <mxRectangle width="120" height="20" as="alternateBounds" />
          </mxGeometry>
        </mxCell>
        <mxCell id="SHEvJp04jUSjWjKEnZsJ-67" value="" style="shape=tableRow;horizontal=0;startSize=0;swimlaneHead=0;swimlaneBody=0;fillColor=none;collapsible=0;dropTarget=0;points=[[0,0.5],[1,0.5]];portConstraint=eastwest;top=0;left=0;right=0;bottom=0;" parent="SHEvJp04jUSjWjKEnZsJ-51" vertex="1">
          <mxGeometry y="179" width="150" height="21" as="geometry" />
        </mxCell>
        <mxCell id="SHEvJp04jUSjWjKEnZsJ-68" value="" style="shape=partialRectangle;connectable=0;fillColor=none;top=0;left=0;bottom=0;right=0;editable=1;overflow=hidden;whiteSpace=wrap;html=1;" parent="SHEvJp04jUSjWjKEnZsJ-67" vertex="1">
          <mxGeometry width="30" height="21" as="geometry">
            <mxRectangle width="30" height="21" as="alternateBounds" />
          </mxGeometry>
        </mxCell>
        <mxCell id="SHEvJp04jUSjWjKEnZsJ-69" value="" style="shape=partialRectangle;connectable=0;fillColor=none;top=0;left=0;bottom=0;right=0;align=left;spacingLeft=6;overflow=hidden;whiteSpace=wrap;html=1;" parent="SHEvJp04jUSjWjKEnZsJ-67" vertex="1">
          <mxGeometry x="30" width="120" height="21" as="geometry">
            <mxRectangle width="120" height="21" as="alternateBounds" />
          </mxGeometry>
        </mxCell>
        <mxCell id="SHEvJp04jUSjWjKEnZsJ-121" value="" style="shape=tableRow;horizontal=0;startSize=0;swimlaneHead=0;swimlaneBody=0;fillColor=none;collapsible=0;dropTarget=0;points=[[0,0.5],[1,0.5]];portConstraint=eastwest;top=0;left=0;right=0;bottom=0;" parent="SHEvJp04jUSjWjKEnZsJ-51" vertex="1">
          <mxGeometry y="200" width="150" height="30" as="geometry" />
        </mxCell>
        <mxCell id="SHEvJp04jUSjWjKEnZsJ-122" value="" style="shape=partialRectangle;connectable=0;fillColor=none;top=0;left=0;bottom=0;right=0;editable=1;overflow=hidden;whiteSpace=wrap;html=1;" parent="SHEvJp04jUSjWjKEnZsJ-121" vertex="1">
          <mxGeometry width="30" height="30" as="geometry">
            <mxRectangle width="30" height="30" as="alternateBounds" />
          </mxGeometry>
        </mxCell>
        <mxCell id="SHEvJp04jUSjWjKEnZsJ-123" value="area_tecnologia" style="shape=partialRectangle;connectable=0;fillColor=none;top=0;left=0;bottom=0;right=0;align=left;spacingLeft=6;overflow=hidden;whiteSpace=wrap;html=1;" parent="SHEvJp04jUSjWjKEnZsJ-121" vertex="1">
          <mxGeometry x="30" width="120" height="30" as="geometry">
            <mxRectangle width="120" height="30" as="alternateBounds" />
          </mxGeometry>
        </mxCell>
        <mxCell id="SHEvJp04jUSjWjKEnZsJ-125" value="disciplinas" style="shape=table;startSize=30;container=1;collapsible=1;childLayout=tableLayout;fixedRows=1;rowLines=0;fontStyle=1;align=center;resizeLast=1;html=1;" parent="WIyWlLk6GJQsqaUBKTNV-1" vertex="1">
          <mxGeometry x="343" y="402" width="142" height="204" as="geometry" />
        </mxCell>
        <mxCell id="SHEvJp04jUSjWjKEnZsJ-126" value="" style="shape=tableRow;horizontal=0;startSize=0;swimlaneHead=0;swimlaneBody=0;fillColor=none;collapsible=0;dropTarget=0;points=[[0,0.5],[1,0.5]];portConstraint=eastwest;top=0;left=0;right=0;bottom=1;" parent="SHEvJp04jUSjWjKEnZsJ-125" vertex="1">
          <mxGeometry y="30" width="142" height="30" as="geometry" />
        </mxCell>
        <mxCell id="SHEvJp04jUSjWjKEnZsJ-127" value="(FK)" style="shape=partialRectangle;connectable=0;fillColor=none;top=0;left=0;bottom=0;right=0;fontStyle=1;overflow=hidden;whiteSpace=wrap;html=1;" parent="SHEvJp04jUSjWjKEnZsJ-126" vertex="1">
          <mxGeometry width="30" height="30" as="geometry">
            <mxRectangle width="30" height="30" as="alternateBounds" />
          </mxGeometry>
        </mxCell>
        <mxCell id="SHEvJp04jUSjWjKEnZsJ-128" value="id_diciplinas" style="shape=partialRectangle;connectable=0;fillColor=none;top=0;left=0;bottom=0;right=0;align=left;spacingLeft=6;fontStyle=5;overflow=hidden;whiteSpace=wrap;html=1;" parent="SHEvJp04jUSjWjKEnZsJ-126" vertex="1">
          <mxGeometry x="30" width="112" height="30" as="geometry">
            <mxRectangle width="112" height="30" as="alternateBounds" />
          </mxGeometry>
        </mxCell>
        <mxCell id="SHEvJp04jUSjWjKEnZsJ-129" value="" style="shape=tableRow;horizontal=0;startSize=0;swimlaneHead=0;swimlaneBody=0;fillColor=none;collapsible=0;dropTarget=0;points=[[0,0.5],[1,0.5]];portConstraint=eastwest;top=0;left=0;right=0;bottom=0;" parent="SHEvJp04jUSjWjKEnZsJ-125" vertex="1">
          <mxGeometry y="60" width="142" height="36" as="geometry" />
        </mxCell>
        <mxCell id="SHEvJp04jUSjWjKEnZsJ-130" value="" style="shape=partialRectangle;connectable=0;fillColor=none;top=0;left=0;bottom=0;right=0;editable=1;overflow=hidden;whiteSpace=wrap;html=1;" parent="SHEvJp04jUSjWjKEnZsJ-129" vertex="1">
          <mxGeometry width="30" height="36" as="geometry">
            <mxRectangle width="30" height="36" as="alternateBounds" />
          </mxGeometry>
        </mxCell>
        <mxCell id="SHEvJp04jUSjWjKEnZsJ-131" value="nome_diciplina" style="shape=partialRectangle;connectable=0;fillColor=none;top=0;left=0;bottom=0;right=0;align=left;spacingLeft=6;overflow=hidden;whiteSpace=wrap;html=1;" parent="SHEvJp04jUSjWjKEnZsJ-129" vertex="1">
          <mxGeometry x="30" width="112" height="36" as="geometry">
            <mxRectangle width="112" height="36" as="alternateBounds" />
          </mxGeometry>
        </mxCell>
        <mxCell id="SHEvJp04jUSjWjKEnZsJ-132" value="" style="shape=tableRow;horizontal=0;startSize=0;swimlaneHead=0;swimlaneBody=0;fillColor=none;collapsible=0;dropTarget=0;points=[[0,0.5],[1,0.5]];portConstraint=eastwest;top=0;left=0;right=0;bottom=0;" parent="SHEvJp04jUSjWjKEnZsJ-125" vertex="1">
          <mxGeometry y="96" width="142" height="20" as="geometry" />
        </mxCell>
        <mxCell id="SHEvJp04jUSjWjKEnZsJ-133" value="" style="shape=partialRectangle;connectable=0;fillColor=none;top=0;left=0;bottom=0;right=0;editable=1;overflow=hidden;whiteSpace=wrap;html=1;" parent="SHEvJp04jUSjWjKEnZsJ-132" vertex="1">
          <mxGeometry width="30" height="20" as="geometry">
            <mxRectangle width="30" height="20" as="alternateBounds" />
          </mxGeometry>
        </mxCell>
        <mxCell id="SHEvJp04jUSjWjKEnZsJ-134" value="materia_optativa" style="shape=partialRectangle;connectable=0;fillColor=none;top=0;left=0;bottom=0;right=0;align=left;spacingLeft=6;overflow=hidden;whiteSpace=wrap;html=1;" parent="SHEvJp04jUSjWjKEnZsJ-132" vertex="1">
          <mxGeometry x="30" width="112" height="20" as="geometry">
            <mxRectangle width="112" height="20" as="alternateBounds" />
          </mxGeometry>
        </mxCell>
        <mxCell id="SHEvJp04jUSjWjKEnZsJ-135" value="" style="shape=tableRow;horizontal=0;startSize=0;swimlaneHead=0;swimlaneBody=0;fillColor=none;collapsible=0;dropTarget=0;points=[[0,0.5],[1,0.5]];portConstraint=eastwest;top=0;left=0;right=0;bottom=0;" parent="SHEvJp04jUSjWjKEnZsJ-125" vertex="1">
          <mxGeometry y="116" width="142" height="39" as="geometry" />
        </mxCell>
        <mxCell id="SHEvJp04jUSjWjKEnZsJ-136" value="" style="shape=partialRectangle;connectable=0;fillColor=none;top=0;left=0;bottom=0;right=0;editable=1;overflow=hidden;whiteSpace=wrap;html=1;" parent="SHEvJp04jUSjWjKEnZsJ-135" vertex="1">
          <mxGeometry width="30" height="39" as="geometry">
            <mxRectangle width="30" height="39" as="alternateBounds" />
          </mxGeometry>
        </mxCell>
        <mxCell id="SHEvJp04jUSjWjKEnZsJ-137" value="" style="shape=partialRectangle;connectable=0;fillColor=none;top=0;left=0;bottom=0;right=0;align=left;spacingLeft=6;overflow=hidden;whiteSpace=wrap;html=1;" parent="SHEvJp04jUSjWjKEnZsJ-135" vertex="1">
          <mxGeometry x="30" width="112" height="39" as="geometry">
            <mxRectangle width="112" height="39" as="alternateBounds" />
          </mxGeometry>
        </mxCell>
        <mxCell id="SHEvJp04jUSjWjKEnZsJ-138" value="" style="shape=tableRow;horizontal=0;startSize=0;swimlaneHead=0;swimlaneBody=0;fillColor=none;collapsible=0;dropTarget=0;points=[[0,0.5],[1,0.5]];portConstraint=eastwest;top=0;left=0;right=0;bottom=0;" parent="SHEvJp04jUSjWjKEnZsJ-125" vertex="1">
          <mxGeometry y="155" width="142" height="29" as="geometry" />
        </mxCell>
        <mxCell id="SHEvJp04jUSjWjKEnZsJ-139" value="" style="shape=partialRectangle;connectable=0;fillColor=none;top=0;left=0;bottom=0;right=0;editable=1;overflow=hidden;whiteSpace=wrap;html=1;" parent="SHEvJp04jUSjWjKEnZsJ-138" vertex="1">
          <mxGeometry width="30" height="29" as="geometry">
            <mxRectangle width="30" height="29" as="alternateBounds" />
          </mxGeometry>
        </mxCell>
        <mxCell id="SHEvJp04jUSjWjKEnZsJ-140" value="" style="shape=partialRectangle;connectable=0;fillColor=none;top=0;left=0;bottom=0;right=0;align=left;spacingLeft=6;overflow=hidden;whiteSpace=wrap;html=1;" parent="SHEvJp04jUSjWjKEnZsJ-138" vertex="1">
          <mxGeometry x="30" width="112" height="29" as="geometry">
            <mxRectangle width="112" height="29" as="alternateBounds" />
          </mxGeometry>
        </mxCell>
        <mxCell id="SHEvJp04jUSjWjKEnZsJ-141" value="" style="shape=tableRow;horizontal=0;startSize=0;swimlaneHead=0;swimlaneBody=0;fillColor=none;collapsible=0;dropTarget=0;points=[[0,0.5],[1,0.5]];portConstraint=eastwest;top=0;left=0;right=0;bottom=0;" parent="SHEvJp04jUSjWjKEnZsJ-125" vertex="1">
          <mxGeometry y="184" width="142" height="20" as="geometry" />
        </mxCell>
        <mxCell id="SHEvJp04jUSjWjKEnZsJ-142" value="" style="shape=partialRectangle;connectable=0;fillColor=none;top=0;left=0;bottom=0;right=0;editable=1;overflow=hidden;whiteSpace=wrap;html=1;" parent="SHEvJp04jUSjWjKEnZsJ-141" vertex="1">
          <mxGeometry width="30" height="20" as="geometry">
            <mxRectangle width="30" height="20" as="alternateBounds" />
          </mxGeometry>
        </mxCell>
        <mxCell id="SHEvJp04jUSjWjKEnZsJ-143" value="" style="shape=partialRectangle;connectable=0;fillColor=none;top=0;left=0;bottom=0;right=0;align=left;spacingLeft=6;overflow=hidden;whiteSpace=wrap;html=1;" parent="SHEvJp04jUSjWjKEnZsJ-141" vertex="1">
          <mxGeometry x="30" width="112" height="20" as="geometry">
            <mxRectangle width="112" height="20" as="alternateBounds" />
          </mxGeometry>
        </mxCell>
        <mxCell id="SHEvJp04jUSjWjKEnZsJ-144" value="" style="endArrow=open;endFill=1;endSize=12;html=1;rounded=0;" parent="WIyWlLk6GJQsqaUBKTNV-1" edge="1">
          <mxGeometry width="160" relative="1" as="geometry">
            <mxPoint x="420" y="270" as="sourcePoint" />
            <mxPoint x="420" y="400" as="targetPoint" />
            <Array as="points">
              <mxPoint x="420" y="330" />
            </Array>
          </mxGeometry>
        </mxCell>
        <mxCell id="SHEvJp04jUSjWjKEnZsJ-146" value="" style="endArrow=none;html=1;rounded=0;" parent="WIyWlLk6GJQsqaUBKTNV-1" edge="1">
          <mxGeometry width="50" height="50" relative="1" as="geometry">
            <mxPoint x="420" y="270" as="sourcePoint" />
            <mxPoint x="600" y="270" as="targetPoint" />
          </mxGeometry>
        </mxCell>
        <mxCell id="SHEvJp04jUSjWjKEnZsJ-147" value="N" style="text;html=1;align=center;verticalAlign=middle;whiteSpace=wrap;rounded=0;" parent="WIyWlLk6GJQsqaUBKTNV-1" vertex="1">
          <mxGeometry x="730" y="240" width="60" height="30" as="geometry" />
        </mxCell>
        <mxCell id="SHEvJp04jUSjWjKEnZsJ-148" value="1" style="text;html=1;align=center;verticalAlign=middle;whiteSpace=wrap;rounded=0;" parent="WIyWlLk6GJQsqaUBKTNV-1" vertex="1">
          <mxGeometry x="742.5" y="372" width="60" height="30" as="geometry" />
        </mxCell>
        <mxCell id="SHEvJp04jUSjWjKEnZsJ-150" value="N" style="text;html=1;align=center;verticalAlign=middle;whiteSpace=wrap;rounded=0;" parent="WIyWlLk6GJQsqaUBKTNV-1" vertex="1">
          <mxGeometry x="607" y="150" width="60" height="30" as="geometry" />
        </mxCell>
        <mxCell id="SHEvJp04jUSjWjKEnZsJ-167" value="" style="endArrow=open;endFill=1;endSize=12;html=1;rounded=0;" parent="WIyWlLk6GJQsqaUBKTNV-1" edge="1">
          <mxGeometry width="160" relative="1" as="geometry">
            <mxPoint x="83" y="314" as="sourcePoint" />
            <mxPoint x="83" y="367" as="targetPoint" />
          </mxGeometry>
        </mxCell>
        <mxCell id="SHEvJp04jUSjWjKEnZsJ-168" value="1" style="text;html=1;align=center;verticalAlign=middle;resizable=0;points=[];autosize=1;strokeColor=none;fillColor=none;" parent="WIyWlLk6GJQsqaUBKTNV-1" vertex="1">
          <mxGeometry x="82" y="311" width="30" height="30" as="geometry" />
        </mxCell>
        <mxCell id="SHEvJp04jUSjWjKEnZsJ-170" value="N" style="text;html=1;align=center;verticalAlign=middle;resizable=0;points=[];autosize=1;strokeColor=none;fillColor=none;" parent="WIyWlLk6GJQsqaUBKTNV-1" vertex="1">
          <mxGeometry x="90" y="459" width="30" height="30" as="geometry" />
        </mxCell>
        <mxCell id="SHEvJp04jUSjWjKEnZsJ-171" value="" style="endArrow=none;html=1;rounded=0;" parent="WIyWlLk6GJQsqaUBKTNV-1" edge="1">
          <mxGeometry width="50" height="50" relative="1" as="geometry">
            <mxPoint x="600" y="170" as="sourcePoint" />
            <mxPoint x="600" y="270" as="targetPoint" />
          </mxGeometry>
        </mxCell>
        <mxCell id="SHEvJp04jUSjWjKEnZsJ-172" value="" style="endArrow=none;html=1;rounded=0;" parent="WIyWlLk6GJQsqaUBKTNV-1" edge="1">
          <mxGeometry width="50" height="50" relative="1" as="geometry">
            <mxPoint x="661" y="171" as="sourcePoint" />
            <mxPoint x="601" y="171" as="targetPoint" />
          </mxGeometry>
        </mxCell>
        <mxCell id="SHEvJp04jUSjWjKEnZsJ-173" value="N" style="text;html=1;align=center;verticalAlign=middle;resizable=0;points=[];autosize=1;strokeColor=none;fillColor=none;" parent="WIyWlLk6GJQsqaUBKTNV-1" vertex="1">
          <mxGeometry x="435" y="368" width="30" height="30" as="geometry" />
        </mxCell>
        <mxCell id="SHEvJp04jUSjWjKEnZsJ-174" value="N" style="text;html=1;align=center;verticalAlign=middle;resizable=0;points=[];autosize=1;strokeColor=none;fillColor=none;" parent="WIyWlLk6GJQsqaUBKTNV-1" vertex="1">
          <mxGeometry x="506" y="18" width="30" height="30" as="geometry" />
        </mxCell>
      </root>
    </mxGraphModel>
  </diagram>
</mxfile>
